<svg xmlns="http://www.w3.org/2000/svg" version="1.1" xmlns:xlink="http://www.w3.org/1999/xlink" xmlns:svgjs="http://svgjs.dev/svgjs" width="48" height="48"><svg xmlns="http://www.w3.org/2000/svg" viewBox="0 0 48 48" fill="none">
    <path stroke="#47AE33" stroke-width="1.5" stroke-linecap="round" stroke-linejoin="round" d="M43.5 21.09v-7.465a6.21 6.21 0 0 0-6.2-6.2H10.7a6.25 6.25 0 0 0-6.2 6.2v7.719"></path>
    <path stroke="#ED114C" stroke-width="1.5" stroke-linecap="round" stroke-linejoin="round" d="M43.5 18.844a6.21 6.21 0 0 0-6.2-6.2H10.7a6.21 6.21 0 0 0-6.2 6.2"></path>
    <path stroke="#FBBF16" stroke-width="1.5" stroke-linecap="round" stroke-linejoin="round" d="M42.953 21.488a6.21 6.21 0 0 0-5.653-3.656H10.7a6.21 6.21 0 0 0-5.645 3.64"></path>
    <path stroke="#1476C6" stroke-width="1.5" stroke-linecap="round" stroke-linejoin="round" d="M29.298 27.1L4.5 21.343v13.032a6.21 6.21 0 0 0 6.2 6.2h26.601a6.21 6.21 0 0 0 6.2-6.2V21.09l-5.915 4.302a10.2 10.2 0 0 1-8.288 1.708"></path>
</svg><style>@media (prefers-color-scheme: light) { :root { filter: none; } }
@media (prefers-color-scheme: dark) { :root { filter: none; } }
</style></svg>